<?xml version="1.0" standalone="no"?>
<!DOCTYPE svg PUBLIC "-//W3C//DTD SVG 20010904//EN"
 "http://www.w3.org/TR/2001/REC-SVG-20010904/DTD/svg10.dtd">
<svg version="1.0" xmlns="http://www.w3.org/2000/svg"
 width="200.000000pt" height="200.000000pt" viewBox="0 0 200.000000 200.000000"
 preserveAspectRatio="xMidYMid meet">
<metadata>
Created by potrace 1.11, written by Peter Selinger 2001-2013
</metadata>
<g transform="translate(0.000000,200.000000) scale(0.100000,-0.100000)"
fill="#000000" stroke="none">
<path d="M728 1840 c-150 -87 -343 -198 -428 -247 l-155 -89 -3 -500 -2 -499
44 -24 45 -23 323 187 c378 220 468 272 488 285 8 5 44 26 80 46 36 21 179
104 319 186 139 81 256 146 260 144 3 -2 6 -162 5 -355 0 -261 -3 -354 -12
-363 -7 -7 -36 -26 -66 -43 -29 -16 -216 -124 -415 -239 l-362 -209 76 -49 76
-48 258 150 c143 82 273 157 290 167 16 10 93 54 170 98 131 74 141 82 142
110 1 34 1 753 -1 885 l0 85 -47 26 -47 26 -99 -59 c-54 -32 -101 -58 -103
-58 -3 0 -17 -9 -32 -19 -24 -17 -328 -195 -442 -259 -25 -14 -180 -104 -345
-200 -165 -96 -325 -188 -355 -205 -30 -16 -61 -34 -68 -40 -7 -5 -15 -7 -18
-5 -3 3 -5 163 -4 354 0 398 -12 349 99 410 118 65 736 425 742 432 4 4 -26
28 -66 54 l-73 46 -274 -158z"/>
<path d="M995 1533 c-220 -130 -420 -248 -445 -263 l-45 -26 -1 -85 c-1 -46 0
-87 3 -91 2 -4 16 1 31 11 15 10 176 105 357 211 182 106 346 203 365 215 19
12 91 55 159 95 l123 72 -48 32 c-112 75 -48 96 -499 -171z"/>
<path d="M982 625 l-513 -304 38 -24 c21 -13 56 -34 79 -47 l41 -24 167 100
c91 54 179 106 194 115 15 9 137 81 272 161 l245 146 3 91 c1 50 -1 91 -5 90
-4 -1 -239 -138 -521 -304z"/>
</g>
</svg>
